<svg id="Layer_7" data-name="Layer 7" xmlns="http://www.w3.org/2000/svg" viewBox="0 0 83.75 135"><path d="M204.375,375a7.49,7.49,0,0,1,0-14.1283V301.269a7.5,7.5,0,0,0,5.3033-12.8032H204.375a7.4965,7.4965,0,0,1-5-7.0642V278.75l-3.75-3.75H180.6066L171,284.6066v5.3975l1.6517-1.6517a1.875,1.875,0,1,1,2.6516,2.6517l-3.9775,3.9775,1.3259,1.3258,6.6291,6.6291a1.875,1.875,0,0,1-2.6516,2.6517L170,298.959l-6.6292,6.6292a1.875,1.875,0,0,1-2.6516-2.6517l6.6292-6.6291h0l1.3259-1.3258-3.9775-3.9775a1.875,1.875,0,1,1,2.6516-2.6517L169,290.0041v-5.3975L159.3934,275H140.625l-10.3033,2.1967a7.5,7.5,0,0,0,0,10.6066h5.3033a7.49,7.49,0,0,1,0,14.1283v60.2651A7.5,7.5,0,0,0,130.3217,375h5.3033a7.49,7.49,0,0,1,0,14.1283V406.25l3.75,3.75h61.25l3.75-3.75V387.8033A7.5,7.5,0,0,0,209.6783,375Z" transform="translate(-128.125 -275)"/></svg>