<?xml version="1.0" encoding="UTF-8"?>
<svg id="Layer_7" data-name="Layer 7" xmlns="http://www.w3.org/2000/svg" viewBox="0 0 100 100">
  <defs>
    <style>
      .cls-1 {
        fill: #010101;
      }
    </style>
  </defs>
  <path class="cls-1" d="M20.81,87.52c-3.68,0-6.81-2.85-7.09-6.58l-2.27-29.66c-4.16-3.11-6.52-6.96-6.84-11.16-.43-5.61,2.83-11.11,9.19-15.51,6.18-4.28,14.61-7.02,23.72-7.71,9.11-.7,17.85,.73,24.61,4.02,6.95,3.38,11.01,8.33,11.44,13.93,.33,4.32-1.54,8.62-5.42,12.42-.99,.96-2.57,.95-3.54-.04-.97-.99-.95-2.57,.03-3.54,2.79-2.73,4.15-5.66,3.93-8.46-.29-3.76-3.35-7.25-8.64-9.82-5.98-2.91-13.81-4.16-22.05-3.53-8.24,.63-15.79,3.06-21.25,6.84-4.83,3.34-7.33,7.25-7.04,11.02,.21,2.8,2,5.49,5.17,7.77,.95,.69,1.54,1.74,1.63,2.9l2.3,30.14c.09,1.16,1.11,2.05,2.27,1.95l42.85-3.28c.56-.04,1.08-.3,1.45-.73s.55-.98,.5-1.54l-.22-2.82c-.11-1.38,.93-2.58,2.3-2.68,1.38-.11,2.58,.93,2.68,2.3l.22,2.82c.15,1.9-.46,3.74-1.7,5.18-1.24,1.44-2.96,2.32-4.86,2.46l-42.85,3.28c-.18,.01-.37,.02-.55,.02Z"/>
  <path class="cls-1" d="M25.63,63.11c-1.29,0-2.39-.99-2.49-2.3-.11-1.38,.92-2.58,2.3-2.69l27.21-2.15c1.38-.1,2.58,.92,2.69,2.3s-.92,2.58-2.3,2.69l-27.21,2.15c-.07,0-.13,0-.2,0Z"/>
  <path class="cls-1" d="M26.49,74.36c-1.29,0-2.39-.99-2.49-2.3-.11-1.38,.92-2.58,2.29-2.69l23.68-1.88c1.38-.09,2.58,.92,2.69,2.29,.11,1.38-.92,2.58-2.29,2.69l-23.68,1.88c-.07,0-.13,0-.2,0Z"/>
  <path class="cls-1" d="M24.77,51.86c-1.29,0-2.39-.99-2.49-2.3-.11-1.38,.92-2.58,2.3-2.69l31.12-2.45c1.37-.1,2.58,.92,2.69,2.3s-.92,2.58-2.3,2.69l-31.12,2.45c-.07,0-.13,0-.2,0Z"/>
  <path class="cls-1" d="M23.91,40.62c-1.29,0-2.39-.99-2.49-2.3-.11-1.38,.92-2.58,2.3-2.69l31.12-2.45c1.37-.1,2.58,.92,2.69,2.3,.11,1.38-.92,2.58-2.3,2.69l-31.12,2.45c-.07,0-.13,0-.2,0Z"/>
  <g>
    <path d="M86.23,34.8l-26.22,23.8c-.2,.18-.35,.41-.44,.67l-3.18,9.27c-.19,.55-.06,1.17,.33,1.6s.99,.62,1.56,.48l9.53-2.27c.26-.06,.51-.19,.71-.37l26.22-23.8c1.84-1.67,2.02-4.48,.4-6.26l-2.64-2.9c-1.62-1.78-4.43-1.88-6.27-.21Zm-15.56,26.89l-3.34-1.19-.86-3.44,16.77-15.22,4.2,4.62-16.77,15.22Zm-10.3,5.13l2.1-6.12,1.3-1.18,.65,2.6c.13,.52,.51,.94,1.02,1.12l2.53,.9-1.3,1.18-6.3,1.5Z"/>
    <path d="M80.59,47.02l-9.41,8.54c-.44,.4-.47,1.07-.07,1.51s1.07,.47,1.51,.07l9.41-8.54c.44-.4,.47-1.07,.07-1.51s-1.07-.47-1.51-.07Z"/>
  </g>
</svg>