<?xml version="1.0" encoding="UTF-8"?>
<svg id="Layer_8" data-name="Layer 8" xmlns="http://www.w3.org/2000/svg" viewBox="0 0 100 100">
  <defs>
    <style>
      .cls-1 {
        fill: #010101;
      }
    </style>
  </defs>
  <path class="cls-1" d="M62.25,44.96c-1.06-.18-1.78-1.18-1.61-2.24,.1-.58,.45-1.09,.97-1.38l-1.44-8.16c1.06-.19,1.77-1.2,1.58-2.26-.09-.51-.38-.96-.8-1.26l-1.36,.24c-.82-.14-1.46-.77-1.6-1.59l-.12-.68-1.13-.79-5.94,1.05-2.03,2.9,.2,1.13,.25-.36c.62-.88,1.84-1.1,2.72-.48,.43,.3,.71,.75,.8,1.26l.34,1.92-.79,1.13,.17,.96,.96-.17c.37,2.13-1.04,4.15-3.17,4.53s-4.15-1.04-4.53-3.17l.96-.17-.17-.96-1.13-.79-.34-1.92c-.19-1.06,.52-2.08,1.58-2.26,.51-.09,1.04,.03,1.46,.32l.36,.25-.2-1.13-2.9-2.03-6.9,1.22-2.54,1.03c-.62,.88-.4,2.1,.48,2.72l1.36-.24c1.06,.18,1.78,1.18,1.61,2.24-.1,.58-.45,1.09-.97,1.38l1.44,8.16c-1.06,.19-1.77,1.2-1.58,2.26,.09,.51,.38,.96,.8,1.26l1.36-.24c.82,.14,1.46,.77,1.6,1.59l.12,.68,1.13,.79,18.28-3.22,2.54-1.03c.62-.88,.4-2.1-.48-2.72l-1.36,.24Z"/>
  <path class="cls-1" d="M57.66,68.13c-.7,0-1.39-.29-1.88-.85-.91-1.04-.8-2.62,.24-3.53l28.09-24.57c1.04-.91,2.62-.8,3.53,.24,.91,1.04,.8,2.62-.24,3.53l-28.09,24.57c-.47,.42-1.06,.62-1.65,.62Z"/>
  <path class="cls-1" d="M42.35,68.14c-.58,0-1.17-.2-1.65-.62L12.61,42.93c-1.04-.91-1.14-2.49-.23-3.53,.91-1.04,2.49-1.14,3.53-.24l28.1,24.59c1.04,.91,1.14,2.49,.23,3.53-.49,.56-1.19,.85-1.88,.85Z"/>
  <path class="cls-1" d="M85.74,92.73c-.58,0-1.17-.2-1.65-.62l-34.1-29.84L15.9,92.11c-1.04,.91-2.62,.8-3.53-.24s-.8-2.62,.23-3.53l35.75-31.28c.94-.82,2.35-.82,3.29,0l35.75,31.28c1.04,.91,1.14,2.49,.24,3.53-.5,.56-1.19,.85-1.88,.85Z"/>
  <path class="cls-1" d="M85.74,43.55c-.58,0-1.17-.2-1.65-.62L50,13.1,15.9,42.93c-1.04,.91-2.62,.8-3.53-.24s-.8-2.62,.23-3.53L48.35,7.89c.94-.82,2.35-.82,3.29,0l35.75,31.28c1.04,.91,1.14,2.49,.24,3.53-.5,.56-1.19,.85-1.88,.85Z"/>
  <path class="cls-1" d="M85.75,92.7H14.25c-1.38,0-2.5-1.12-2.5-2.5V41.05c0-1.38,1.12-2.5,2.5-2.5s2.5,1.12,2.5,2.5v46.65H83.25V41.05c0-1.38,1.12-2.5,2.5-2.5s2.5,1.12,2.5,2.5v49.15c0,1.38-1.12,2.5-2.5,2.5Z"/>
</svg>