<?xml version="1.0" encoding="UTF-8"?>
<svg id="Layer_8" data-name="Layer 8" xmlns="http://www.w3.org/2000/svg" viewBox="0 0 100 100">
  <defs>
    <style>
      .cls-1 {
        fill: #010101;
      }
    </style>
  </defs>
  <path class="cls-1" d="M57.66,68.13c-.7,0-1.39-.29-1.88-.85-.91-1.04-.8-2.62,.24-3.53l28.09-24.57c1.04-.91,2.62-.8,3.53,.24,.91,1.04,.8,2.62-.24,3.53l-28.09,24.57c-.47,.42-1.06,.62-1.65,.62Z"/>
  <path class="cls-1" d="M42.35,68.14c-.58,0-1.17-.2-1.65-.62L12.61,42.93c-1.04-.91-1.14-2.49-.23-3.53,.91-1.04,2.49-1.14,3.53-.24l28.1,24.59c1.04,.91,1.14,2.49,.23,3.53-.49,.56-1.19,.85-1.88,.85Z"/>
  <path class="cls-1" d="M85.74,92.73c-.58,0-1.17-.2-1.65-.62l-34.1-29.84L15.9,92.11c-1.04,.91-2.62,.8-3.53-.24s-.8-2.62,.23-3.53l35.75-31.28c.94-.82,2.35-.82,3.29,0l35.75,31.28c1.04,.91,1.14,2.49,.24,3.53-.5,.56-1.19,.85-1.88,.85Z"/>
  <path class="cls-1" d="M85.74,43.55c-.58,0-1.17-.2-1.65-.62L50,13.1,15.9,42.93c-1.04,.91-2.62,.8-3.53-.24s-.8-2.62,.23-3.53L48.35,7.89c.94-.82,2.35-.82,3.29,0l35.75,31.28c1.04,.91,1.14,2.49,.24,3.53-.5,.56-1.19,.85-1.88,.85Z"/>
  <path class="cls-1" d="M85.75,92.7H14.25c-1.38,0-2.5-1.12-2.5-2.5V41.05c0-1.38,1.12-2.5,2.5-2.5s2.5,1.12,2.5,2.5v46.65H83.25V41.05c0-1.38,1.12-2.5,2.5-2.5s2.5,1.12,2.5,2.5v49.15c0,1.38-1.12,2.5-2.5,2.5Z"/>
  <path class="cls-1" d="M62.22,45.08c-.95,.17-1.86-.47-2.03-1.42s.47-1.86,1.42-2.03l-1.41-8.02c.95-.17,1.59-1.08,1.42-2.03s-1.08-1.59-2.03-1.42-1.86-.47-2.03-1.42l-.15-.86-1.01-.71-5.6,.99-1.82,2.6,.2,1.13,.04-.06c.62-.88,1.84-1.1,2.72-.48,.43,.3,.71,.75,.8,1.26l.68,3.85c.37,2.13-1.04,4.15-3.17,4.53s-4.15-1.04-4.53-3.17l-.68-3.85c-.19-1.06,.52-2.08,1.58-2.26,.51-.09,1.04,.03,1.46,.32l.06,.04-.2-1.13-2.6-1.82-8.18,1.44c-.95,.17-1.59,1.08-1.42,2.03s1.08,1.59,2.03,1.42,1.86,.47,2.03,1.42-.47,1.86-1.42,2.03l1.41,8.02c-.95,.17-1.59,1.08-1.42,2.03s1.08,1.59,2.03,1.42,1.86,.47,2.03,1.42l.15,.86,1.01,.71,19.22-3.39c.95-.17,1.59-1.08,1.42-2.03s-1.08-1.59-2.03-1.42Z"/>
</svg>