<?xml version="1.0" encoding="UTF-8"?>
<svg id="Layer_9" data-name="Layer 9" xmlns="http://www.w3.org/2000/svg" viewBox="0 0 100 100">
  <defs>
    <style>
      .cls-1 {
        fill: #010101;
      }
    </style>
  </defs>
  <path class="cls-1" d="M9.26,82.07c-.7,0-1.39-.29-1.88-.85-.91-1.04-.8-2.62,.24-3.53l28.09-24.58c1.04-.91,2.62-.8,3.53,.24,.91,1.04,.8,2.62-.24,3.53l-28.09,24.58c-.47,.41-1.06,.62-1.65,.62Z"/>
  <path class="cls-1" d="M45,64.18c-.59,0-1.17-.21-1.65-.62L7.64,32.31c-.78-.69-1.06-1.79-.69-2.76,.37-.98,1.3-1.62,2.34-1.62H60.75c1.38,0,2.5,1.12,2.5,2.5s-1.12,2.5-2.5,2.5H15.94l29.06,25.43,19.06-16.67c1.04-.91,2.62-.8,3.53,.24,.91,1.04,.8,2.62-.24,3.53l-20.7,18.12c-.47,.41-1.06,.62-1.65,.62Z"/>
  <path class="cls-1" d="M80.75,82.07H9.26c-1.38,0-2.5-1.12-2.5-2.5V30.43c0-1.38,1.12-2.5,2.5-2.5,.61,0,1.22,.22,1.67,.62l34.07,29.81,5.96-5.21s.06-.05,.09-.08l13.01-11.38c1.04-.91,2.62-.8,3.53,.24,.91,1.04,.8,2.62-.24,3.53l-10.91,9.54,21.8,19.08v-23.64c0-1.38,1.12-2.5,2.5-2.5s2.5,1.12,2.5,2.5v29.13c0,.17-.01,.35-.05,.52,0,0,0,0,0,0h0c-.04,.2-.1,.39-.19,.57h0s0,0,0,0c-.12,.26-.29,.49-.48,.69-.17,.17-.37,.32-.59,.44h0s0,0,0,0c-.25,.13-.53,.23-.82,.27,0,0,0,0,0,0-.12,.02-.24,.03-.37,.03Zm-68.99-5h62.34l-21.45-18.76-6,5.25c-.94,.82-2.35,.82-3.29,0L11.76,35.91v41.16Z"/>
  <path class="cls-1" d="M80.75,17.93c-6.9,0-12.5,5.6-12.5,12.5s5.6,12.5,12.5,12.5,12.5-5.6,12.5-12.5-5.6-12.5-12.5-12.5Zm2.04,8.96c-.06,.52-.12,1.16-.14,1.9-.02,.76-.04,1.92-.04,3.48,0,1.16,0,1.94-.02,2.34-.02,.42-.04,.72-.08,.9-.08,.62-.5,.96-1.06,.96-.72,0-1.44-.52-1.46-1.16v-.3c0-.22,.02-.4,.04-1.04,.02-.46,.06-.7,.06-.94,.02-.14,.02-.26,.02-.48v-.72c0-.22,0-.48-.02-.94-.02-.46-.02-.74-.02-.96v-.32c0-.32,.02-.58,.04-1.4-.68,.18-1.1,.28-1.24,.3-.14,.04-.28,.06-.38,.08-.02,.02-.04,.02-.1,.02h-.08c-.48,0-.84-.36-.84-.84,0-.42,.28-.82,.76-1.04,.12-.06,.62-.32,1.48-.78,.86-.46,1.44-.7,1.72-.7,.82,0,1.38,.62,1.38,1.44,0,.02-.02,.14-.02,.2Z"/>
</svg>