<svg id="Layer_2" data-name="Layer 2" xmlns="http://www.w3.org/2000/svg" viewBox="0 0 100 85"><defs><style>.cls-1{fill:#fff;}</style></defs><path class="cls-1" d="M155,40.6066" transform="translate(-119.9997 -7.5)"/><path d="M212.5,79.6967a7.49,7.49,0,0,1,0-14.1283V33.769a7.5,7.5,0,0,0,5.3033-12.8032H212.5a7.4965,7.4965,0,0,1-5-7.0642V11.25L203.75,7.5H180.6063L171,17.1063V21.5l1.1927-1.1928A7.5,7.5,0,0,1,185,25.6066v7.5l-3.75,3.75v3.75H185a15,15,0,0,1-30,0h3.75v-3.75l-3.75-3.75v-7.5a7.5,7.5,0,0,1,12.8033-5.3033L169,21.5V17.1069L159.3931,7.5H132.5L122.1964,9.6967a7.5,7.5,0,0,0,0,10.6066H127.5a7.49,7.49,0,0,1,0,14.1283V66.2309a7.5,7.5,0,0,0-5.3033,12.8033H127.5a7.4963,7.4963,0,0,1,5,7.0641V88.75l3.75,3.75H207.5l10.3033-2.1967a7.5,7.5,0,0,0,0-10.6066Z" transform="translate(-119.9997 -7.5)"/></svg>